<svg width="48" height="48" fill="none" xmlns="http://www.w3.org/2000/svg"><path fill-rule="evenodd" clip-rule="evenodd" d="M13 26.25c-1.214 0-2.2 1.008-2.2 2.25s.986 2.25 2.2 2.25c1.214 0 2.2-1.008 2.2-2.25s-.986-2.25-2.2-2.25ZM35 26.25c-1.214 0-2.2 1.008-2.2 2.25s.986 2.25 2.2 2.25c1.214 0 2.2-1.008 2.2-2.25s-.986-2.25-2.2-2.25Z" fill="#800D63"/><path fill-rule="evenodd" clip-rule="evenodd" d="M37.2 33H10.8c-2.427 0-4.4-2.018-4.4-4.5S8.373 24 10.8 24h26.4c2.427 0 4.4 2.018 4.4 4.5S39.627 33 37.2 33ZM16.609 10.5h14.784c1.045 0 1.953.76 2.158 1.809l1.846 7.191H12.605l1.845-7.193c.205-1.046 1.114-1.807 2.159-1.807ZM46 28.5a8.968 8.968 0 0 0-6.02-8.496l-2.116-8.577C37.251 8.281 34.53 6 31.392 6H16.608c-3.137 0-5.859 2.281-6.472 5.425l-2.117 8.579A8.968 8.968 0 0 0 2 28.5a9 9 0 0 0 4.4 7.747V37.5c0 2.25 0 4.5 3.3 4.5s3.3-2.25 3.3-4.5h22c0 2.25 0 4.5 3.3 4.5s3.3-2.25 3.3-4.5v-1.253A9 9 0 0 0 46 28.5Z" fill="#800D63"/><path fill-rule="evenodd" clip-rule="evenodd" d="M19.6 28.5c0 1.243.985 2.25 2.2 2.25h4.4c1.215 0 2.2-1.007 2.2-2.25s-.985-2.25-2.2-2.25h-4.4c-1.215 0-2.2 1.007-2.2 2.25Z" fill="#800D63"/></svg>