<svg width="24" height="24" fill="none" xmlns="http://www.w3.org/2000/svg"><path fill-rule="evenodd" clip-rule="evenodd" d="M10.182 14.741V9.26l5.315 2.74-5.315 2.742ZM21.896 8.42c-.033-.827-.248-1.638-.819-2.304-.702-.818-1.681-.89-2.646-.928-2.145-.082-4.292-.119-6.934-.188-1.924.076-4.344.152-6.76.274-1.09.055-1.909.598-2.273 1.641a6.117 6.117 0 0 0-.349 1.72 101.464 101.464 0 0 0-.11 5.45c.01.883.15 1.776.33 2.644.23 1.107.968 1.786 2.1 1.967.714.114 1.44.174 2.163.2 4.13.146 8.261.156 12.39-.082 1.409-.08 2.39-.789 2.712-2.144.171-.724.294-1.479.298-2.22.01-2.01-.022-4.022-.102-6.03Z" fill="#fff"/></svg>