<?xml version="1.0" encoding="utf-8"?><svg xmlns="http://www.w3.org/2000/svg" xmlns:xlink="http://www.w3.org/1999/xlink"><symbol viewBox="0 0 19 18" id="arrow" xmlns="http://www.w3.org/2000/svg">
    <path fill-rule="evenodd" clip-rule="evenodd" d="M11.562 14.444c.32.306.83.292 1.132-.032l4.418-4.73a1 1 0 0 0 0-1.365l-4.418-4.729a.796.796 0 0 0-1.171 1.08l3.327 3.66a1 1 0 0 1 0 1.345l-3.327 3.66a.796.796 0 0 0 .04 1.111Z"/>
    <path fill-rule="evenodd" clip-rule="evenodd" d="M1.25 9c0 .46.373.833.833.833h13.334a.833.833 0 0 0 0-1.666H2.083A.833.833 0 0 0 1.25 9Z"/>
</symbol><symbol viewBox="0 0 48 48" id="car" xmlns="http://www.w3.org/2000/svg">
    <path fill-rule="evenodd" clip-rule="evenodd" d="M13 26.25c-1.214 0-2.2 1.008-2.2 2.25s.986 2.25 2.2 2.25c1.214 0 2.2-1.008 2.2-2.25s-.986-2.25-2.2-2.25ZM35 26.25c-1.214 0-2.2 1.008-2.2 2.25s.986 2.25 2.2 2.25c1.214 0 2.2-1.008 2.2-2.25s-.986-2.25-2.2-2.25Z"/>
    <path fill-rule="evenodd" clip-rule="evenodd" d="M37.2 33H10.8c-2.427 0-4.4-2.018-4.4-4.5S8.373 24 10.8 24h26.4c2.427 0 4.4 2.018 4.4 4.5S39.627 33 37.2 33ZM16.609 10.5h14.784c1.045 0 1.953.76 2.158 1.809l1.846 7.191H12.605l1.845-7.193c.205-1.046 1.114-1.807 2.159-1.807ZM46 28.5a8.968 8.968 0 0 0-6.02-8.496l-2.116-8.577C37.251 8.281 34.53 6 31.392 6H16.608c-3.137 0-5.859 2.281-6.472 5.425l-2.117 8.579A8.968 8.968 0 0 0 2 28.5a9 9 0 0 0 4.4 7.747V37.5c0 2.25 0 4.5 3.3 4.5s3.3-2.25 3.3-4.5h22c0 2.25 0 4.5 3.3 4.5s3.3-2.25 3.3-4.5v-1.253A9 9 0 0 0 46 28.5Z"/>
    <path fill-rule="evenodd" clip-rule="evenodd" d="M19.6 28.5c0 1.243.985 2.25 2.2 2.25h4.4c1.215 0 2.2-1.007 2.2-2.25s-.985-2.25-2.2-2.25h-4.4c-1.215 0-2.2 1.007-2.2 2.25Z"/>
</symbol><symbol viewBox="0 0 105 36" id="logo" xmlns="http://www.w3.org/2000/svg">
    <path fill-rule="evenodd" clip-rule="evenodd" d="M6.466 8.947v3.03l.06-.016a15 15 0 0 1 1.916-1.515 8.577 8.577 0 0 1 2.156-1.03 8.883 8.883 0 0 1 2.62-.394c1.234 0 2.458.237 3.607.697a8.586 8.586 0 0 1 2.993 2.045 9.35 9.35 0 0 1 1.946 3.227 13.42 13.42 0 0 1 0 8.574 9.78 9.78 0 0 1-1.946 3.257 8.634 8.634 0 0 1-2.993 2.06 9.437 9.437 0 0 1-3.668.727 8.534 8.534 0 0 1-3.502-.727 11.856 11.856 0 0 1-3.234-2.303v9.09H0v-3.5h2.874V12.37H0V8.947h6.466ZM9.37 25.2c.954.56 2.041.843 3.144.818l-.12.015a5.72 5.72 0 0 0 2.41-.47 5.51 5.51 0 0 0 1.886-1.333 6.41 6.41 0 0 0 1.242-2.15c.319-.92.476-1.89.464-2.864a8.156 8.156 0 0 0-.763-3.696 5.28 5.28 0 0 0-2.096-2.333 5.932 5.932 0 0 0-3.158-.818 6.05 6.05 0 0 0-3.128.818 5.329 5.329 0 0 0-2.021 2.348 8.801 8.801 0 0 0-.719 3.62 8.495 8.495 0 0 0 .719 3.667A5.385 5.385 0 0 0 9.37 25.2Zm20.762-12.074a6.09 6.09 0 0 0-1.767 3.803h11.317a5.954 5.954 0 0 0-1.752-3.803 6.387 6.387 0 0 0-3.9-1.33 6.387 6.387 0 0 0-3.898 1.33Zm13.501 6.908H28.051l-.12.06a5.733 5.733 0 0 0 .794 3.015 5.428 5.428 0 0 0 2.185 2.015c1.015.5 2.134.75 3.263.727a7.312 7.312 0 0 0 2.53-.303 7.145 7.145 0 0 0 2.17-1.212 7.938 7.938 0 0 0 1.692-1.969l2.814 2.227a10.885 10.885 0 0 1-3.623 3.605 11.165 11.165 0 0 1-5.613 1.424 11.968 11.968 0 0 1-4.206-.742 8.971 8.971 0 0 1-3.252-2.133 9.106 9.106 0 0 1-2.062-3.32 12.449 12.449 0 0 1-.733-4.363 12.59 12.59 0 0 1 .733-4.378 9.698 9.698 0 0 1 2.066-3.318 9.17 9.17 0 0 1 3.188-2.166 11.094 11.094 0 0 1 4.027-.742 9.95 9.95 0 0 1 5.239 1.348c1.48.93 2.64 2.3 3.323 3.923a15.831 15.831 0 0 1 1.167 6.302Zm23.248 8.987h-9.22v-3.363h2.724l5.776-6.548-6.182-6.74h-2.71a6.612 6.612 0 0 0-3.637.893 4.946 4.946 0 0 0-2.02 2.636 12.992 12.992 0 0 0-.57 4.317v8.801h-6.496V25.52h2.874V12.37h-2.874V9.022h6.482v3.757a8.841 8.841 0 0 1 1.122-1.893c.367-.463.82-.85 1.333-1.137a5.047 5.047 0 0 1 1.646-.56 12.31 12.31 0 0 1 2.05-.167h9.76v3.348h-2.275l3.772 4.226 3.772-4.226h-2.545V9.022h9.595l-8.592 9.68 6.116 6.85h1.99v3.47h-9.22v-3.424h2.44l-3.69-4.29-3.905 4.35h2.484v3.364Z"/>
    <path d="M85.65 29.017h-3.563v-16.68h-2.794v-3.32h6.357v20ZM88.813 29.024v-6.762h3.158c.135 1.312.661 2.336 1.579 3.074.918.738 2.106 1.107 3.563 1.107 1.188 0 2.12-.246 2.794-.738.702-.52 1.053-1.189 1.053-2.008 0-1.257-1.201-2.172-3.604-2.746l-3.037-.697c-1.916-.464-3.333-1.148-4.251-2.05-.891-.9-1.336-2.13-1.336-3.688 0-1.666.647-3.073 1.943-4.22 1.323-1.176 2.97-1.763 4.94-1.763 2.052 0 3.806.67 5.264 2.008V9.025h3.037v6.516h-3.037c-.108-1.202-.621-2.158-1.539-2.869-.89-.738-2.065-1.106-3.523-1.106-1.052 0-1.89.232-2.51.696-.594.465-.89 1.093-.89 1.886 0 .71.256 1.256.769 1.639.512.382 1.322.697 2.429.943l3.36.696c3.726.82 5.588 2.719 5.588 5.697 0 1.94-.661 3.51-1.984 4.713-1.295 1.175-3.05 1.762-5.263 1.762-2.16 0-3.941-.642-5.345-1.926v1.352h-3.158Z"/>
    <path fill-rule="evenodd" clip-rule="evenodd" d="m90.986.604-5.329 6.059h-4.236l5.36-6.06h4.205Z"/>
</symbol><symbol viewBox="0 0 18 18" id="message" xmlns="http://www.w3.org/2000/svg">
    <path fill-rule="evenodd" clip-rule="evenodd" d="M4 3.75a1 1 0 0 0-1 1v7a1 1 0 0 0 1 1h1.5a.5.5 0 0 1 .5.5.5.5 0 0 0 .8.4l.934-.7a1 1 0 0 1 .6-.2H14a1 1 0 0 0 1-1v-7a1 1 0 0 0-1-1H4Zm2.1 12.3a1 1 0 0 1-1.6-.8 1 1 0 0 0-1-1H3c-.827 0-1.5-.673-1.5-1.5v-9c0-.827.673-1.5 1.5-1.5h12c.827 0 1.5.673 1.5 1.5v9c0 .827-.673 1.5-1.5 1.5H8.833a1 1 0 0 0-.6.2L6.1 16.05Z"/>
    <path d="M5.25 6.75A.75.75 0 0 1 6 6h6a.75.75 0 0 1 0 1.5H6a.75.75 0 0 1-.75-.75ZM5.25 9.75A.75.75 0 0 1 6 9h6a.75.75 0 0 1 0 1.5H6a.75.75 0 0 1-.75-.75Z"/>
</symbol><symbol viewBox="0 0 24 24" id="minus" xmlns="http://www.w3.org/2000/svg">
    <path fill-rule="evenodd" clip-rule="evenodd" d="M22 11.8889C22 11.3366 21.5523 10.8889 21 10.8889H3C2.44772 10.8889 2 11.3366 2 11.8889V12.1111C2 12.6634 2.44772 13.1111 3 13.1111H21C21.5523 13.1111 22 12.6634 22 12.1111V11.8889Z"/>
</symbol><symbol viewBox="0 0 44 44" id="money" xmlns="http://www.w3.org/2000/svg">
    <path fill-rule="evenodd" clip-rule="evenodd" d="M39.6 29.8a1 1 0 0 1-1 1h-8.675a1 1 0 0 1-.707-.293l-3.4-3.4a1 1 0 0 1 0-1.414l3.4-3.4a1 1 0 0 1 .707-.293H38.6a1 1 0 0 1 1 1v6.8Zm-4.406 8.8a1 1 0 0 1-1 1H5.4a1 1 0 0 1-1-1V14.2a1 1 0 0 1 1-1h28.8a1 1 0 0 1 1 1v2.4a1 1 0 0 1-1 1h-5.6c-.583 0-1.142.231-1.555.645l-6.6 6.6a2.2 2.2 0 0 0 0 3.113l6.6 6.6c.413.409.972.642 1.555.642h5.595a1 1 0 0 1 1 1l-.001 2.4ZM26.683 5.336a1 1 0 0 1 1.266.481l.768 1.536a1 1 0 0 1-.895 1.447h-4.606c-1.1 0-1.394-1.52-.371-1.928l3.838-1.536ZM41.8 17.6h-1.2a1 1 0 0 1-1-1v-3.4c0-2.426-1.973-4.4-4.4-4.4h-.222a1 1 0 0 1-.895-.553l-3.516-7.03a2.203 2.203 0 0 0-2.785-1.06L6.354 8.728a1 1 0 0 1-.371.071H4.4A4.404 4.404 0 0 0 0 13.2v26.4C0 42.027 1.973 44 4.4 44h30.8c2.427 0 4.4-1.973 4.4-4.4v-3.4a1 1 0 0 1 1-1h1.2A2.2 2.2 0 0 0 44 33V19.8a2.2 2.2 0 0 0-2.2-2.2Z"/>
    <path fill-rule="evenodd" clip-rule="evenodd" d="M28.6 26.4a2.2 2.2 0 1 0 4.399.001 2.2 2.2 0 0 0-4.399 0Z"/>
</symbol><symbol viewBox="0 0 24 24" id="phone" xmlns="http://www.w3.org/2000/svg">
    <path fill-rule="evenodd" clip-rule="evenodd" d="M18.286 11.004c.086.545-.37.996-.922.996h-.122c-.552 0-.988-.454-1.116-.991a4.256 4.256 0 0 0-3.135-3.135C12.454 7.745 12 7.31 12 6.758v-.122c0-.552.45-1.008.996-.922a6.378 6.378 0 0 1 5.29 5.29Z"/>
    <path fill-rule="evenodd" clip-rule="evenodd" d="M21.95 11.001c.055.55-.398.999-.95.999-.552 0-.993-.45-1.062-.998a8.017 8.017 0 0 0-6.94-6.94C12.45 3.993 12 3.552 12 3s.449-1.005.999-.95c4.718.47 8.482 4.233 8.952 8.951ZM12.872 10.404c-.44-.24-.872.185-.872.687s.407.909.91.909c.501 0 .927-.431.686-.872a1.827 1.827 0 0 0-.724-.724Z"/>
    <path fill-rule="evenodd" clip-rule="evenodd" d="M5 5a1 1 0 0 0-1 1v4c0 5.514 4.486 10 10 10h4a1 1 0 0 0 1-1v-2a1 1 0 0 0-1-1h-2a1 1 0 0 0-1 1 1 1 0 0 1-1 1c-4.488 0-7.928-3.433-8-7.984A1 1 0 0 1 7 9a1 1 0 0 0 1-1V6a1 1 0 0 0-1-1H5Zm14 17h-5C7.383 22 2 16.617 2 10V5c0-1.103.897-2 2-2h4c1.103 0 2 .897 2 2v4a2 2 0 0 1-.853 1.637c-.49.346-.973.888-.77 1.453a5.844 5.844 0 0 0 3.535 3.553c.563.203 1.1-.282 1.44-.775A2 2 0 0 1 15 14h4c1.103 0 2 .897 2 2v4c0 1.103-.897 2-2 2Z"/>
</symbol><symbol viewBox="0 0 24 24" id="plus" xmlns="http://www.w3.org/2000/svg">
    <path fill-rule="evenodd" clip-rule="evenodd" d="M22 11.8889C22 11.3366 21.5523 10.8889 21 10.8889H14.1111C13.5588 10.8889 13.1111 10.4412 13.1111 9.88889V3C13.1111 2.44772 12.6634 2 12.1111 2H11.8889C11.3366 2 10.8889 2.44772 10.8889 3V9.88889C10.8889 10.4412 10.4412 10.8889 9.88889 10.8889H3C2.44772 10.8889 2 11.3366 2 11.8889V12.1111C2 12.6634 2.44772 13.1111 3 13.1111H9.88889C10.4412 13.1111 10.8889 13.5588 10.8889 14.1111V21C10.8889 21.5523 11.3366 22 11.8889 22H12.1111C12.6634 22 13.1111 21.5523 13.1111 21V14.1111C13.1111 13.5588 13.5588 13.1111 14.1111 13.1111H21C21.5523 13.1111 22 12.6634 22 12.1111V11.8889Z"/>
</symbol><symbol viewBox="0 0 48 48" id="service" xmlns="http://www.w3.org/2000/svg">
    <path fill-rule="evenodd" clip-rule="evenodd" d="M24 28.457c-6.302 0-11.429-4.919-11.429-10.964 0-2.837 1.152-5.494 3.093-7.482.57-.584 1.479-.135 1.479.68V15.3c0 3.627 3.076 6.578 6.857 6.578 3.78 0 6.857-2.951 6.857-6.578V10.69c0-.815.91-1.264 1.48-.68 1.94 1.988 3.092 4.645 3.092 7.482 0 6.045-5.127 10.964-11.429 10.964Zm16-10.964c0-6.482-4.286-12.294-10.667-14.458l-1.726-.586a1 1 0 0 0-1.321.947V15.3c0 1.21-1.027 2.193-2.286 2.193-1.26 0-2.286-.983-2.286-2.193V3.396a1 1 0 0 0-1.321-.947l-1.726.586C12.286 5.199 8 11.011 8 17.493c0 5.886 3.48 10.994 8.564 13.569.35.177.579.53.579.92V45a1 1 0 0 0 1 1h2.571a1 1 0 0 0 1-1V33.843a1 1 0 0 1 1-1h2.572a1 1 0 0 1 1 1V45a1 1 0 0 0 1 1h2.571a1 1 0 0 0 1-1V31.983c0-.392.23-.744.579-.921C36.52 28.487 40 23.379 40 17.492Z"/>
</symbol><symbol viewBox="0 0 24 24" id="tg" xmlns="http://www.w3.org/2000/svg">
    <path fill-rule="evenodd" clip-rule="evenodd" d="M3.375 10.888c5.369-2.258 8.949-3.747 10.74-4.466 5.114-2.053 6.177-2.41 6.87-2.422.152-.002.493.034.713.207a.74.74 0 0 1 .262.481c.025.139.055.454.031.7-.277 2.811-1.476 9.633-2.086 12.781-.259 1.333-.767 1.78-1.259 1.823-1.07.095-1.881-.682-2.917-1.338-1.621-1.025-2.537-1.664-4.11-2.665-1.818-1.156-.64-1.792.396-2.831.272-.272 4.984-4.41 5.075-4.785.011-.047.022-.222-.086-.314-.108-.092-.266-.06-.381-.036-.163.036-2.752 1.688-7.768 4.957-.735.487-1.4.724-1.997.712-.658-.014-1.923-.359-2.863-.654-1.153-.362-2.07-.553-1.99-1.168.041-.32.498-.647 1.37-.982Z"/>
</symbol><symbol viewBox="0 0 24 24" id="vk" xmlns="http://www.w3.org/2000/svg">
    <path fill-rule="evenodd" clip-rule="evenodd" d="M21.494 18h-2.565c-.838 0-.943-.626-2.479-2.128-1.295-1.31-1.85-1.413-2.163-1.413-.28 0-.472.215-.472.715v2.003c0 .591-.332.823-1.692.823-2.235 0-4.713-1.413-6.598-4.024C2.715 10.096 2 7.198 2 6.572c0-.34.245-.572.576-.572h2.286c.594 0 .82.18 1.03.823 1.047 3.148 2.915 5.92 3.7 5.92.296 0 .331-.25.331-.895V8.647c0-1.551-.855-1.68-.855-2.253 0-.227.175-.394.454-.394h3.665c.489 0 .558.18.558.787v4.346c0 .495.1.68.314.68.267 0 .513-.166.995-.716 1.504-1.7 2.74-4.4 2.74-4.4.157-.339.35-.572.873-.572h2.286c.454 0 .646.251.559.698-.263 1.252-2.898 5.061-2.898 5.061-.244.393-.349.608 0 .984.245.321 1.013 1.018 1.484 1.662C21.249 15.782 22 16.838 22 17.428c0 .447-.244.572-.506.572Z"/>
</symbol><symbol viewBox="0 0 24 24" id="youtube" xmlns="http://www.w3.org/2000/svg">
    <path fill-rule="evenodd" clip-rule="evenodd" d="M10.182 14.741V9.26l5.315 2.74-5.315 2.742ZM21.896 8.42c-.033-.827-.248-1.638-.819-2.304-.702-.818-1.681-.89-2.646-.928-2.145-.082-4.292-.119-6.934-.188-1.924.076-4.344.152-6.76.274-1.09.055-1.909.598-2.273 1.641a6.117 6.117 0 0 0-.349 1.72 101.464 101.464 0 0 0-.11 5.45c.01.883.15 1.776.33 2.644.23 1.107.968 1.786 2.1 1.967.714.114 1.44.174 2.163.2 4.13.146 8.261.156 12.39-.082 1.409-.08 2.39-.789 2.712-2.144.171-.724.294-1.479.298-2.22.01-2.01-.022-4.022-.102-6.03Z"/>
</symbol></svg>