<svg width="24" height="24" fill="none" xmlns="http://www.w3.org/2000/svg"><path fill-rule="evenodd" clip-rule="evenodd" d="M21.494 18h-2.565c-.838 0-.943-.626-2.479-2.128-1.295-1.31-1.85-1.413-2.163-1.413-.28 0-.472.215-.472.715v2.003c0 .591-.332.823-1.692.823-2.235 0-4.713-1.413-6.598-4.024C2.715 10.096 2 7.198 2 6.572c0-.34.245-.572.576-.572h2.286c.594 0 .82.18 1.03.823 1.047 3.148 2.915 5.92 3.7 5.92.296 0 .331-.25.331-.895V8.647c0-1.551-.855-1.68-.855-2.253 0-.227.175-.394.454-.394h3.665c.489 0 .558.18.558.787v4.346c0 .495.1.68.314.68.267 0 .513-.166.995-.716 1.504-1.7 2.74-4.4 2.74-4.4.157-.339.35-.572.873-.572h2.286c.454 0 .646.251.559.698-.263 1.252-2.898 5.061-2.898 5.061-.244.393-.349.608 0 .984.245.321 1.013 1.018 1.484 1.662C21.249 15.782 22 16.838 22 17.428c0 .447-.244.572-.506.572Z" fill="#fff"/></svg>