<?xml version="1.0" encoding="utf-8"?><svg viewBox="0 0 512 512" xmlns="http://www.w3.org/2000/svg" xmlns:xlink="http://www.w3.org/1999/xlink"><style>:root>svg{display:none}:root>svg:target{display:block}</style><svg fill="none" viewBox="0 0 24 25" id="heart" xmlns="http://www.w3.org/2000/svg">
    <path fill-rule="evenodd" clip-rule="evenodd" d="M12.692 7.584a1 1 0 0 1-1.384 0l-.693-.665A4.5 4.5 0 0 0 3 10.166c0 2.383 1.29 4.35 3.152 5.967 1.863 1.618 4.091 2.691 5.423 3.239.278.114.572.114.85 0 1.332-.548 3.56-1.62 5.423-3.239C19.71 14.517 21 12.55 21 10.167a4.5 4.5 0 0 0-7.615-3.248l-.693.665ZM12 5.476a6.5 6.5 0 0 0-11 4.69c0 6.369 6.97 9.886 9.814 11.055a3.096 3.096 0 0 0 2.372 0C16.03 20.051 23 16.535 23 10.167a6.5 6.5 0 0 0-11-4.69Z" fill="#141718"/>
</svg><svg fill="none" viewBox="0 0 24 24" id="heart-line" xmlns="http://www.w3.org/2000/svg">
    <path d="M12.001 4.529a5.998 5.998 0 0 1 8.242.228 6 6 0 0 1 .236 8.236l-8.48 8.492-8.478-8.492a6 6 0 0 1 8.48-8.464Zm6.826 1.641a3.998 3.998 0 0 0-5.49-.153l-1.335 1.198-1.336-1.197a4 4 0 0 0-5.686 5.605L12 18.654l7.02-7.03a4 4 0 0 0-.193-5.454Z" fill="#000"/>
</svg><svg fill="none" viewBox="0 0 24 24" id="id-card-line" xmlns="http://www.w3.org/2000/svg">
    <path d="M3 6h18v12H3V6ZM2 4a1 1 0 0 0-1 1v14a1 1 0 0 0 1 1h20a1 1 0 0 0 1-1V5a1 1 0 0 0-1-1H2Zm11 4h6v2h-6V8Zm5 4h-5v2h5v-2Zm-7.5-2a2.5 2.5 0 1 1-5 0 2.5 2.5 0 0 1 5 0ZM8 13.5A3.5 3.5 0 0 0 4.5 17h7A3.5 3.5 0 0 0 8 13.5Z" fill="#000"/>
</svg><svg fill="none" viewBox="0 0 105 36" id="logo" xmlns="http://www.w3.org/2000/svg">
    <path fill-rule="evenodd" clip-rule="evenodd" d="M6.466 8.947v3.03l.06-.016a15 15 0 0 1 1.916-1.515 8.577 8.577 0 0 1 2.156-1.03 8.883 8.883 0 0 1 2.62-.394c1.234 0 2.458.237 3.607.697a8.586 8.586 0 0 1 2.993 2.045 9.35 9.35 0 0 1 1.946 3.227 13.42 13.42 0 0 1 0 8.574 9.78 9.78 0 0 1-1.946 3.257 8.634 8.634 0 0 1-2.993 2.06 9.437 9.437 0 0 1-3.668.727 8.534 8.534 0 0 1-3.502-.727 11.856 11.856 0 0 1-3.234-2.303v9.09H0v-3.5h2.874V12.37H0V8.947h6.466ZM9.37 25.2a5.94 5.94 0 0 0 3.144.818l-.12.015a5.72 5.72 0 0 0 2.41-.47 5.51 5.51 0 0 0 1.886-1.333 6.41 6.41 0 0 0 1.242-2.15 8.43 8.43 0 0 0 .464-2.864 8.156 8.156 0 0 0-.763-3.696 5.28 5.28 0 0 0-2.096-2.333 5.932 5.932 0 0 0-3.158-.818 6.05 6.05 0 0 0-3.128.818 5.329 5.329 0 0 0-2.021 2.348 8.801 8.801 0 0 0-.719 3.62 8.495 8.495 0 0 0 .719 3.667A5.385 5.385 0 0 0 9.37 25.2Zm20.762-12.074a6.09 6.09 0 0 0-1.767 3.803h11.317a5.954 5.954 0 0 0-1.752-3.803 6.387 6.387 0 0 0-3.9-1.33 6.387 6.387 0 0 0-3.898 1.33Zm13.501 6.908H28.051l-.12.06a5.733 5.733 0 0 0 .794 3.015 5.428 5.428 0 0 0 2.185 2.015 7.06 7.06 0 0 0 3.263.727 7.312 7.312 0 0 0 2.53-.303 7.145 7.145 0 0 0 2.17-1.212 7.938 7.938 0 0 0 1.692-1.969l2.814 2.227a10.885 10.885 0 0 1-3.623 3.605 11.165 11.165 0 0 1-5.613 1.424 11.968 11.968 0 0 1-4.206-.742 8.971 8.971 0 0 1-3.252-2.133 9.106 9.106 0 0 1-2.062-3.32 12.449 12.449 0 0 1-.733-4.363 12.59 12.59 0 0 1 .733-4.378 9.698 9.698 0 0 1 2.066-3.318 9.17 9.17 0 0 1 3.188-2.166 11.094 11.094 0 0 1 4.027-.742 9.95 9.95 0 0 1 5.239 1.348c1.48.93 2.64 2.3 3.323 3.923a15.831 15.831 0 0 1 1.167 6.302Zm23.248 8.987h-9.22v-3.363h2.724l5.776-6.548-6.182-6.74h-2.71a6.612 6.612 0 0 0-3.637.893 4.946 4.946 0 0 0-2.02 2.636 12.992 12.992 0 0 0-.57 4.317v8.801h-6.496V25.52h2.874V12.37h-2.874V9.022h6.482v3.757a8.841 8.841 0 0 1 1.122-1.893c.367-.463.82-.85 1.333-1.137a5.047 5.047 0 0 1 1.646-.56 12.31 12.31 0 0 1 2.05-.167h9.76v3.348h-2.275l3.772 4.226 3.772-4.226h-2.545V9.022h9.595l-8.592 9.68 6.116 6.85h1.99v3.47h-9.22v-3.424h2.44l-3.69-4.29-3.905 4.35h2.484v3.364Z" fill="#262626"/>
    <path d="M85.65 29.017h-3.563v-16.68h-2.794v-3.32h6.357v20Zm3.163.007v-6.762h3.158c.135 1.312.661 2.336 1.579 3.074.918.738 2.106 1.107 3.563 1.107 1.188 0 2.12-.246 2.794-.738.702-.52 1.053-1.189 1.053-2.008 0-1.257-1.201-2.172-3.604-2.746l-3.037-.697c-1.916-.464-3.333-1.148-4.251-2.05-.891-.9-1.336-2.13-1.336-3.688 0-1.666.647-3.073 1.943-4.22 1.323-1.176 2.97-1.763 4.94-1.763 2.052 0 3.806.67 5.264 2.008V9.025h3.037v6.516h-3.037c-.108-1.202-.621-2.158-1.539-2.869-.89-.738-2.065-1.106-3.523-1.106-1.052 0-1.89.232-2.51.696-.594.465-.89 1.093-.89 1.886 0 .71.256 1.256.769 1.639.512.382 1.322.697 2.429.943l3.36.696c3.726.82 5.588 2.719 5.588 5.697 0 1.94-.661 3.51-1.984 4.713-1.295 1.175-3.05 1.762-5.263 1.762-2.16 0-3.941-.642-5.345-1.926v1.352h-3.158Z" fill="#262626"/>
    <path fill-rule="evenodd" clip-rule="evenodd" d="m90.986.604-5.329 6.059h-4.236l5.36-6.06h4.205Z" fill="#DE0C74"/>
</svg><svg fill="none" viewBox="0 0 18 18" id="message" xmlns="http://www.w3.org/2000/svg">
    <path fill-rule="evenodd" clip-rule="evenodd" d="M4 3.75a1 1 0 0 0-1 1v7a1 1 0 0 0 1 1h1.5a.5.5 0 0 1 .5.5.5.5 0 0 0 .8.4l.934-.7a1 1 0 0 1 .6-.2H14a1 1 0 0 0 1-1v-7a1 1 0 0 0-1-1H4Zm2.1 12.3a1 1 0 0 1-1.6-.8 1 1 0 0 0-1-1H3c-.827 0-1.5-.673-1.5-1.5v-9c0-.827.673-1.5 1.5-1.5h12c.827 0 1.5.673 1.5 1.5v9c0 .827-.673 1.5-1.5 1.5H8.833a1 1 0 0 0-.6.2L6.1 16.05Z" fill="#262626"/>
    <path d="M5.25 6.75A.75.75 0 0 1 6 6h6a.75.75 0 0 1 0 1.5H6a.75.75 0 0 1-.75-.75Zm0 3A.75.75 0 0 1 6 9h6a.75.75 0 0 1 0 1.5H6a.75.75 0 0 1-.75-.75Z" fill="#262626"/>
</svg><svg fill="none" viewBox="0 0 24 24" id="phone" xmlns="http://www.w3.org/2000/svg">
    <path fill-rule="evenodd" clip-rule="evenodd" d="M18.286 11.004c.086.545-.37.996-.922.996h-.122c-.552 0-.988-.454-1.116-.991a4.256 4.256 0 0 0-3.135-3.135C12.454 7.745 12 7.31 12 6.758v-.122c0-.552.45-1.008.996-.922a6.378 6.378 0 0 1 5.29 5.29Z" fill="#505050"/>
    <path fill-rule="evenodd" clip-rule="evenodd" d="M21.95 11.001c.055.55-.398.999-.95.999-.552 0-.993-.45-1.062-.998a8.017 8.017 0 0 0-6.94-6.94C12.45 3.993 12 3.552 12 3s.449-1.005.999-.95c4.718.47 8.482 4.233 8.952 8.951Zm-9.078-.597c-.44-.24-.872.185-.872.687s.407.909.91.909c.501 0 .927-.431.686-.872a1.827 1.827 0 0 0-.724-.724Z" fill="#505050"/>
    <path fill-rule="evenodd" clip-rule="evenodd" d="M5 5a1 1 0 0 0-1 1v4c0 5.514 4.486 10 10 10h4a1 1 0 0 0 1-1v-2a1 1 0 0 0-1-1h-2a1 1 0 0 0-1 1 1 1 0 0 1-1 1c-4.488 0-7.928-3.433-8-7.984A1 1 0 0 1 7 9a1 1 0 0 0 1-1V6a1 1 0 0 0-1-1H5Zm14 17h-5C7.383 22 2 16.617 2 10V5c0-1.103.897-2 2-2h4c1.103 0 2 .897 2 2v4a2 2 0 0 1-.853 1.637c-.49.346-.973.888-.77 1.453a5.844 5.844 0 0 0 3.535 3.553c.563.203 1.1-.282 1.44-.775A2 2 0 0 1 15 14h4c1.103 0 2 .897 2 2v4c0 1.103-.897 2-2 2Z" fill="#505050"/>
</svg><svg fill="none" viewBox="0 0 24 24" id="search" xmlns="http://www.w3.org/2000/svg">
    <path d="M18.5 18.5 22 22m-1-10.5a9.5 9.5 0 1 0-19 0 9.5 9.5 0 0 0 19 0Z" stroke="#141718" stroke-width="1.5" stroke-linecap="round" stroke-linejoin="round"/>
</svg><svg fill="none" viewBox="0 0 24 24" id="search-line" xmlns="http://www.w3.org/2000/svg">
    <path d="m18.031 16.617 4.283 4.282-1.415 1.415-4.282-4.283A8.96 8.96 0 0 1 11 20c-4.968 0-9-4.032-9-9s4.032-9 9-9 9 4.032 9 9a8.96 8.96 0 0 1-1.969 5.617Zm-2.006-.742A6.977 6.977 0 0 0 18 11c0-3.867-3.133-7-7-7s-7 3.133-7 7 3.133 7 7 7a6.977 6.977 0 0 0 4.875-1.975l.15-.15Z" fill="#000"/>
</svg><svg fill="none" viewBox="0 0 24 24" id="user" xmlns="http://www.w3.org/2000/svg">
    <path d="M18.559 19.549a7.003 7.003 0 0 0-13.118 0m13.118 0A9.976 9.976 0 0 0 22 12c0-5.523-4.477-10-10-10S2 6.477 2 12a9.977 9.977 0 0 0 3.441 7.549m13.118 0A9.961 9.961 0 0 1 12 22a9.961 9.961 0 0 1-6.559-2.451M15 9a3 3 0 1 1-6 0 3 3 0 0 1 6 0Z" stroke="#141718" stroke-width="1.5" stroke-linejoin="round"/>
</svg><svg fill="none" viewBox="0 0 24 24" id="user-star-line" xmlns="http://www.w3.org/2000/svg">
    <path d="M12 14v2a6 6 0 0 0-6 6H4a8 8 0 0 1 8-8Zm0-1c-3.315 0-6-2.685-6-6s2.685-6 6-6 6 2.685 6 6-2.685 6-6 6Zm0-2c2.21 0 4-1.79 4-4s-1.79-4-4-4-4 1.79-4 4 1.79 4 4 4Zm6 10.5-2.939 1.545.561-3.273-2.377-2.317 3.286-.477L18 14l1.47 2.977 3.285.478-2.377 2.318.56 3.272L18 21.5Z" fill="#000"/>
</svg><svg viewBox="0 0 497 497" id="website" xmlns="http://www.w3.org/2000/svg">
    <path d="M497 128.5v312c0 11.046-8.954 20-20 20H20c-11.046 0-20-8.954-20-20v-312z" fill="#faf8f8"/>
    <path d="M290.498 294.5c0-23.196-18.804-42-42-42a41.823 41.823 0 0 0-19.482 4.782c-13.386 7.021-19.327 21.053-19.327 37.218 0 23.196 15.613 36.457 38.809 36.457 16.214 0 30.282-3.645 37.282-17.099a41.814 41.814 0 0 0 4.718-19.358z" fill="#dc4955"/>
    <path d="M286.468 312.47c-6.73 14.21-21.2 24.03-37.97 24.03-23.2 0-42-18.8-42-42 0-16.77 9.82-31.24 24.03-37.97-2.59 5.45-4.03 11.54-4.03 17.97 0 23.2 18.8 42 42 42 6.43 0 12.52-1.44 17.97-4.03z" fill="#d82f3c"/>
    <path d="M429.496 294.5c0-23.196-18.804-42-42-42a41.823 41.823 0 0 0-19.482 4.782c-13.386 7.021-19.327 21.053-19.327 37.218 0 23.196 15.613 36.457 38.809 36.457 16.214 0 30.282-3.645 37.282-17.099a41.814 41.814 0 0 0 4.718-19.358z" fill="#b7e546"/>
    <path d="M425.466 312.47c-6.73 14.21-21.2 24.03-37.97 24.03-23.2 0-42-18.8-42-42 0-16.77 9.82-31.24 24.03-37.97-2.59 5.45-4.03 11.54-4.03 17.97 0 23.2 18.8 42 42 42 6.43 0 12.52-1.44 17.97-4.03z" fill="#abd641"/>
    <path d="M497 148.5v-20l-276.011-12.798L0 128.5v312c0 11.046 8.954 20 20 20h15c-8.28 0-15-6.72-15-15v-291a6 6 0 0 1 6-6z" fill="#f0e9e6"/>
    <path d="M497 56.5V129H0V56.5c0-11.046 8.954-20 20-20h457c11.046 0 20 8.954 20 20z" fill="#5d748a"/>
    <g fill="#3f597d">
        <path d="M227.758 108.5c-8.255 0-14.947-6.716-14.947-15s6.692-15 14.947-15h208.315c8.255 0 14.947 6.716 14.947 15s-6.692 15-14.947 15z"/>
        <ellipse cx="160.869" cy="93.5" rx="14.947" ry="15"/>
        <path d="m171.361 104.184 12.874-12.869-13.139 1.179zM150.592 82.608l12.562-12.516-2.693 10.408z"/>
        <ellipse cx="98.034" cy="93.5" rx="14.947" ry="15"/>
        <path d="m108.553 104.157 12.382-12.499-12.674.836zM87.757 82.608l12.371-12.459L97.626 80.5z"/>
        <ellipse cx="32.947" cy="93.5" rx="14.947" ry="15"/>
        <path d="M43.769 103.846 56.49 90.66l-13.139 1.381zM22.67 82.608 34.292 70.57l-1.753 9.93z"/>
    </g>
    <ellipse cx="173.849" cy="80.5" fill="#b7e546" rx="14.947" ry="15"/>
    <path d="m217.514 82.577 12.971-12.991-3.025 14.276zM446.83 103.915l13.149-13.179-10.185 3.381z" fill="#3f597d"/>
    <ellipse cx="110.946" cy="80.5" fill="#ffbf54" rx="14.947" ry="15"/>
    <ellipse cx="45.495" cy="80.5" fill="#dc4955" rx="14.947" ry="15"/>
    <path d="M240.737 95.5c-8.255 0-14.947-6.716-14.947-15s6.692-15 14.947-15h208.315c8.255 0 14.947 6.716 14.947 15s-6.692 15-14.947 15z" fill="#faf8f8"/>
    <path d="m135.893 215 226.628 2c5.523 0 10-4.477 10-10l3.479-7v-30c0-5.523-4.477-10-10-10H142l-6.107 5c-5.523 0-10 4.477-10 10v30c0 5.523 4.477 10 10 10z" fill="#aad8de"/>
    <path d="M376 200v10c0 5.523-4.477 10-10 10H132c-5.523 0-10-4.477-10-10v-40c0-5.523 4.477-10 10-10h10v33a7 7 0 0 0 7 7z" fill="#94ccd4"/>
    <path d="M151.5 294.5c0-23.196-18.804-42-42-42a41.823 41.823 0 0 0-19.482 4.782c-13.386 7.021-19.327 21.053-19.327 37.218 0 23.196 15.613 36.457 38.809 36.457 16.214 0 30.282-3.645 37.282-17.099A41.814 41.814 0 0 0 151.5 294.5z" fill="#ffbf54"/>
    <path d="M147.47 312.47c-6.73 14.21-21.2 24.03-37.97 24.03-23.2 0-42-18.8-42-42 0-16.77 9.82-31.24 24.03-37.97-2.59 5.45-4.03 11.54-4.03 17.97 0 23.2 18.8 42 42 42 6.43 0 12.52-1.44 17.97-4.03z" fill="#ffa442"/>
    <path d="M149.5 374h-70a7.5 7.5 0 0 1 0-15h70a7.5 7.5 0 0 1 0 15zM149.5 404h-80a7.5 7.5 0 0 1 0-15h80a7.5 7.5 0 0 1 0 15zM149.5 434h-80a7.5 7.5 0 0 1 0-15h80a7.5 7.5 0 0 1 0 15zM288.5 374h-70a7.5 7.5 0 0 1 0-15h70c4.143 0 7.5 3.358 7.5 7.5s-3.357 7.5-7.5 7.5zM288.5 404h-80a7.5 7.5 0 0 1 0-15h80c4.143 0 7.5 3.358 7.5 7.5s-3.357 7.5-7.5 7.5zM288.5 434h-80a7.5 7.5 0 0 1 0-15h80c4.143 0 7.5 3.358 7.5 7.5s-3.357 7.5-7.5 7.5zM427.5 374h-70c-4.143 0-7.5-3.358-7.5-7.5s3.357-7.5 7.5-7.5h70c4.143 0 7.5 3.358 7.5 7.5s-3.357 7.5-7.5 7.5zM427.5 404h-80c-4.143 0-7.5-3.358-7.5-7.5s3.357-7.5 7.5-7.5h80c4.143 0 7.5 3.358 7.5 7.5s-3.357 7.5-7.5 7.5zM427.5 434h-80c-4.143 0-7.5-3.358-7.5-7.5s3.357-7.5 7.5-7.5h80c4.143 0 7.5 3.358 7.5 7.5s-3.357 7.5-7.5 7.5z" fill="#f0e9e6"/>
</svg></svg>