<svg width="105" height="36" fill="none" xmlns="http://www.w3.org/2000/svg"><path fill-rule="evenodd" clip-rule="evenodd" d="M6.466 8.947v3.03l.06-.016a15 15 0 0 1 1.916-1.515 8.577 8.577 0 0 1 2.156-1.03 8.883 8.883 0 0 1 2.62-.394c1.234 0 2.458.237 3.607.697a8.586 8.586 0 0 1 2.993 2.045 9.35 9.35 0 0 1 1.946 3.227 13.42 13.42 0 0 1 0 8.574 9.78 9.78 0 0 1-1.946 3.257 8.634 8.634 0 0 1-2.993 2.06 9.437 9.437 0 0 1-3.668.727 8.534 8.534 0 0 1-3.502-.727 11.856 11.856 0 0 1-3.234-2.303v9.09H0v-3.5h2.874V12.37H0V8.947h6.466ZM9.37 25.2c.954.56 2.041.843 3.144.818l-.12.015a5.72 5.72 0 0 0 2.41-.47 5.51 5.51 0 0 0 1.886-1.333 6.41 6.41 0 0 0 1.242-2.15c.319-.92.476-1.89.464-2.864a8.156 8.156 0 0 0-.763-3.696 5.28 5.28 0 0 0-2.096-2.333 5.932 5.932 0 0 0-3.158-.818 6.05 6.05 0 0 0-3.128.818 5.329 5.329 0 0 0-2.021 2.348 8.801 8.801 0 0 0-.719 3.62 8.495 8.495 0 0 0 .719 3.667A5.385 5.385 0 0 0 9.37 25.2Zm20.762-12.074a6.09 6.09 0 0 0-1.767 3.803h11.317a5.954 5.954 0 0 0-1.752-3.803 6.387 6.387 0 0 0-3.9-1.33 6.387 6.387 0 0 0-3.898 1.33Zm13.501 6.908H28.051l-.12.06a5.733 5.733 0 0 0 .794 3.015 5.428 5.428 0 0 0 2.185 2.015c1.015.5 2.134.75 3.263.727a7.312 7.312 0 0 0 2.53-.303 7.145 7.145 0 0 0 2.17-1.212 7.938 7.938 0 0 0 1.692-1.969l2.814 2.227a10.885 10.885 0 0 1-3.623 3.605 11.165 11.165 0 0 1-5.613 1.424 11.968 11.968 0 0 1-4.206-.742 8.971 8.971 0 0 1-3.252-2.133 9.106 9.106 0 0 1-2.062-3.32 12.449 12.449 0 0 1-.733-4.363 12.59 12.59 0 0 1 .733-4.378 9.698 9.698 0 0 1 2.066-3.318 9.17 9.17 0 0 1 3.188-2.166 11.094 11.094 0 0 1 4.027-.742 9.95 9.95 0 0 1 5.239 1.348c1.48.93 2.64 2.3 3.323 3.923a15.831 15.831 0 0 1 1.167 6.302Zm23.248 8.987h-9.22v-3.363h2.724l5.776-6.548-6.182-6.74h-2.71a6.612 6.612 0 0 0-3.637.893 4.946 4.946 0 0 0-2.02 2.636 12.992 12.992 0 0 0-.57 4.317v8.801h-6.496V25.52h2.874V12.37h-2.874V9.022h6.482v3.757a8.841 8.841 0 0 1 1.122-1.893c.367-.463.82-.85 1.333-1.137a5.047 5.047 0 0 1 1.646-.56 12.31 12.31 0 0 1 2.05-.167h9.76v3.348h-2.275l3.772 4.226 3.772-4.226h-2.545V9.022h9.595l-8.592 9.68 6.116 6.85h1.99v3.47h-9.22v-3.424h2.44l-3.69-4.29-3.905 4.35h2.484v3.364Z" fill="#262626"/><path d="M85.65 29.017h-3.563v-16.68h-2.794v-3.32h6.357v20ZM88.813 29.024v-6.762h3.158c.135 1.312.661 2.336 1.579 3.074.918.738 2.106 1.107 3.563 1.107 1.188 0 2.12-.246 2.794-.738.702-.52 1.053-1.189 1.053-2.008 0-1.257-1.201-2.172-3.604-2.746l-3.037-.697c-1.916-.464-3.333-1.148-4.251-2.05-.891-.9-1.336-2.13-1.336-3.688 0-1.666.647-3.073 1.943-4.22 1.323-1.176 2.97-1.763 4.94-1.763 2.052 0 3.806.67 5.264 2.008V9.025h3.037v6.516h-3.037c-.108-1.202-.621-2.158-1.539-2.869-.89-.738-2.065-1.106-3.523-1.106-1.052 0-1.89.232-2.51.696-.594.465-.89 1.093-.89 1.886 0 .71.256 1.256.769 1.639.512.382 1.322.697 2.429.943l3.36.696c3.726.82 5.588 2.719 5.588 5.697 0 1.94-.661 3.51-1.984 4.713-1.295 1.175-3.05 1.762-5.263 1.762-2.16 0-3.941-.642-5.345-1.926v1.352h-3.158Z" fill="#262626"/><path fill-rule="evenodd" clip-rule="evenodd" d="m90.986.604-5.329 6.059h-4.236l5.36-6.06h4.205Z" fill="#DE0C74"/></svg>