<svg width="18" height="18" fill="none" xmlns="http://www.w3.org/2000/svg"><path fill-rule="evenodd" clip-rule="evenodd" d="M4 3.75a1 1 0 0 0-1 1v7a1 1 0 0 0 1 1h1.5a.5.5 0 0 1 .5.5.5.5 0 0 0 .8.4l.934-.7a1 1 0 0 1 .6-.2H14a1 1 0 0 0 1-1v-7a1 1 0 0 0-1-1H4Zm2.1 12.3a1 1 0 0 1-1.6-.8 1 1 0 0 0-1-1H3c-.827 0-1.5-.673-1.5-1.5v-9c0-.827.673-1.5 1.5-1.5h12c.827 0 1.5.673 1.5 1.5v9c0 .827-.673 1.5-1.5 1.5H8.833a1 1 0 0 0-.6.2L6.1 16.05Z" fill="#262626"/><path d="M5.25 6.75A.75.75 0 0 1 6 6h6a.75.75 0 0 1 0 1.5H6a.75.75 0 0 1-.75-.75ZM5.25 9.75A.75.75 0 0 1 6 9h6a.75.75 0 0 1 0 1.5H6a.75.75 0 0 1-.75-.75Z" fill="#262626"/></svg>