<svg width="24" height="24" fill="none" xmlns="http://www.w3.org/2000/svg"><path fill-rule="evenodd" clip-rule="evenodd" d="M18.286 11.004c.086.545-.37.996-.922.996h-.122c-.552 0-.988-.454-1.116-.991a4.256 4.256 0 0 0-3.135-3.135C12.454 7.745 12 7.31 12 6.758v-.122c0-.552.45-1.008.996-.922a6.378 6.378 0 0 1 5.29 5.29Z" fill="#505050"/><path fill-rule="evenodd" clip-rule="evenodd" d="M21.95 11.001c.055.55-.398.999-.95.999-.552 0-.993-.45-1.062-.998a8.017 8.017 0 0 0-6.94-6.94C12.45 3.993 12 3.552 12 3s.449-1.005.999-.95c4.718.47 8.482 4.233 8.952 8.951ZM12.872 10.404c-.44-.24-.872.185-.872.687s.407.909.91.909c.501 0 .927-.431.686-.872a1.827 1.827 0 0 0-.724-.724Z" fill="#505050"/><path fill-rule="evenodd" clip-rule="evenodd" d="M5 5a1 1 0 0 0-1 1v4c0 5.514 4.486 10 10 10h4a1 1 0 0 0 1-1v-2a1 1 0 0 0-1-1h-2a1 1 0 0 0-1 1 1 1 0 0 1-1 1c-4.488 0-7.928-3.433-8-7.984A1 1 0 0 1 7 9a1 1 0 0 0 1-1V6a1 1 0 0 0-1-1H5Zm14 17h-5C7.383 22 2 16.617 2 10V5c0-1.103.897-2 2-2h4c1.103 0 2 .897 2 2v4a2 2 0 0 1-.853 1.637c-.49.346-.973.888-.77 1.453a5.844 5.844 0 0 0 3.535 3.553c.563.203 1.1-.282 1.44-.775A2 2 0 0 1 15 14h4c1.103 0 2 .897 2 2v4c0 1.103-.897 2-2 2Z" fill="#505050"/></svg>